<svg width="590" height="178" viewBox="0 0 590 178" fill="none" xmlns="http://www.w3.org/2000/svg">
<path d="M86.3542 90.52C91.1542 90.52 94.5942 89.44 96.6742 87.28C98.8342 85.04 99.9142 82.16 99.9142 78.64C99.9142 75.28 98.8342 72.52 96.6742 70.36C94.5942 68.2 91.1542 67.12 86.3542 67.12H70.5142V90.52H86.3542ZM53.8342 133V53.32H88.9942C92.9142 53.32 96.4342 54 99.5542 55.36C102.674 56.64 105.354 58.48 107.594 60.88C109.834 63.2 111.554 65.92 112.754 69.04C113.954 72.16 114.554 75.52 114.554 79.12C114.554 82.72 113.954 86.08 112.754 89.2C111.554 92.24 109.834 94.88 107.594 97.12C105.354 99.28 102.674 101 99.5542 102.28C96.4342 103.48 92.9142 104.08 88.9942 104.08H70.5142V133H53.8342ZM147.336 121.48C156.856 121.48 161.616 115.48 161.616 103.48C161.616 91.56 156.856 85.6 147.336 85.6C137.816 85.6 133.056 91.56 133.056 103.48C133.056 115.48 137.816 121.48 147.336 121.48ZM147.336 134.56C142.536 134.56 138.256 133.8 134.496 132.28C130.736 130.76 127.536 128.64 124.896 125.92C122.336 123.2 120.376 119.92 119.016 116.08C117.656 112.24 116.976 108.04 116.976 103.48C116.976 98.84 117.656 94.6 119.016 90.76C120.456 86.92 122.496 83.64 125.136 80.92C127.776 78.2 130.936 76.12 134.616 74.68C138.376 73.16 142.616 72.4 147.336 72.4C151.976 72.4 156.136 73.16 159.816 74.68C163.496 76.12 166.616 78.2 169.176 80.92C171.816 83.56 173.816 86.8 175.176 90.64C176.616 94.48 177.336 98.76 177.336 103.48C177.336 108.2 176.616 112.48 175.176 116.32C173.816 120.08 171.816 123.32 169.176 126.04C166.616 128.76 163.456 130.88 159.696 132.4C156.016 133.84 151.896 134.56 147.336 134.56ZM182.983 133V73.96H197.623V81.04C198.903 79.04 200.223 77.48 201.583 76.36C203.023 75.24 204.463 74.4 205.903 73.84C207.423 73.2 208.943 72.8 210.463 72.64C211.983 72.48 213.543 72.4 215.143 72.4H217.183V88.36C215.743 88.12 214.303 88 212.863 88C203.343 88 198.583 92.76 198.583 102.28V133H182.983ZM255.018 94.12H269.538V110.92C269.538 114.04 269.058 117.04 268.098 119.92C267.218 122.72 265.778 125.24 263.778 127.48C261.858 129.64 259.378 131.36 256.338 132.64C253.378 133.92 249.818 134.56 245.658 134.56C241.338 134.56 237.658 133.92 234.618 132.64C231.578 131.36 229.058 129.64 227.058 127.48C225.138 125.32 223.738 122.8 222.858 119.92C221.978 117.04 221.538 114 221.538 110.8V58H236.898V73.96H269.538V85H236.898V109.24C236.898 113 237.578 115.92 238.938 118C240.378 120 242.698 121 245.898 121C249.018 121 251.298 120 252.738 118C254.258 116 255.018 113.16 255.018 109.48V94.12ZM304.953 121.48C314.473 121.48 319.233 115.48 319.233 103.48C319.233 91.56 314.473 85.6 304.953 85.6C295.433 85.6 290.673 91.56 290.673 103.48C290.673 115.48 295.433 121.48 304.953 121.48ZM304.953 134.56C300.153 134.56 295.873 133.8 292.113 132.28C288.353 130.76 285.153 128.64 282.513 125.92C279.953 123.2 277.993 119.92 276.633 116.08C275.273 112.24 274.593 108.04 274.593 103.48C274.593 98.84 275.273 94.6 276.633 90.76C278.073 86.92 280.113 83.64 282.753 80.92C285.393 78.2 288.553 76.12 292.233 74.68C295.993 73.16 300.233 72.4 304.953 72.4C309.593 72.4 313.753 73.16 317.433 74.68C321.113 76.12 324.233 78.2 326.793 80.92C329.433 83.56 331.433 86.8 332.793 90.64C334.233 94.48 334.953 98.76 334.953 103.48C334.953 108.2 334.233 112.48 332.793 116.32C331.433 120.08 329.433 123.32 326.793 126.04C324.233 128.76 321.073 130.88 317.313 132.4C313.633 133.84 309.513 134.56 304.953 134.56ZM342.033 133V85H333.273V73.96H342.033C342.033 59.56 350.393 52.36 367.113 52.36V64.96C365.113 64.96 363.473 65.12 362.193 65.44C360.993 65.68 360.033 66.16 359.313 66.88C358.593 67.6 358.073 68.56 357.753 69.76C357.513 70.88 357.393 72.28 357.393 73.96H367.473V85H357.393V133H342.033ZM396.476 121.48C405.996 121.48 410.756 115.48 410.756 103.48C410.756 91.56 405.996 85.6 396.476 85.6C386.956 85.6 382.196 91.56 382.196 103.48C382.196 115.48 386.956 121.48 396.476 121.48ZM396.476 134.56C391.676 134.56 387.396 133.8 383.636 132.28C379.876 130.76 376.676 128.64 374.036 125.92C371.476 123.2 369.516 119.92 368.156 116.08C366.796 112.24 366.116 108.04 366.116 103.48C366.116 98.84 366.796 94.6 368.156 90.76C369.596 86.92 371.636 83.64 374.276 80.92C376.916 78.2 380.076 76.12 383.756 74.68C387.516 73.16 391.756 72.4 396.476 72.4C401.116 72.4 405.276 73.16 408.956 74.68C412.636 76.12 415.756 78.2 418.316 80.92C420.956 83.56 422.956 86.8 424.316 90.64C425.756 94.48 426.476 98.76 426.476 103.48C426.476 108.2 425.756 112.48 424.316 116.32C422.956 120.08 420.956 123.32 418.316 126.04C415.756 128.76 412.596 130.88 408.836 132.4C405.156 133.84 401.036 134.56 396.476 134.56ZM432.124 133V52.36H447.724V133H432.124ZM454.632 133V73.96H470.232V133H454.632ZM454.632 66.88V52.36H470.232V66.88H454.632ZM506.398 121.48C515.918 121.48 520.678 115.48 520.678 103.48C520.678 91.56 515.918 85.6 506.398 85.6C496.878 85.6 492.118 91.56 492.118 103.48C492.118 115.48 496.878 121.48 506.398 121.48ZM506.398 134.56C501.598 134.56 497.318 133.8 493.558 132.28C489.798 130.76 486.598 128.64 483.958 125.92C481.398 123.2 479.438 119.92 478.078 116.08C476.718 112.24 476.038 108.04 476.038 103.48C476.038 98.84 476.718 94.6 478.078 90.76C479.518 86.92 481.558 83.64 484.198 80.92C486.838 78.2 489.998 76.12 493.678 74.68C497.438 73.16 501.678 72.4 506.398 72.4C511.038 72.4 515.198 73.16 518.878 74.68C522.558 76.12 525.678 78.2 528.238 80.92C530.878 83.56 532.878 86.8 534.238 90.64C535.678 94.48 536.398 98.76 536.398 103.48C536.398 108.2 535.678 112.48 534.238 116.32C532.878 120.08 530.878 123.32 528.238 126.04C525.678 128.76 522.518 130.88 518.758 132.4C515.078 133.84 510.958 134.56 506.398 134.56Z" fill="black"/>
<path d="M554 35H34V147H554V35Z" stroke="#3B90FF" stroke-width="3"/>
<rect x="546.5" y="139.5" width="15" height="15" fill="white" stroke="#3B90FF" stroke-width="3"/>
<rect x="546.5" y="27.5" width="15" height="15" fill="white" stroke="#3B90FF" stroke-width="3"/>
<rect x="26.5" y="27.5" width="15" height="15" fill="white" stroke="#3B90FF" stroke-width="3"/>
<rect x="26.5" y="139.5" width="15" height="15" fill="white" stroke="#3B90FF" stroke-width="3"/>
</svg>
