<svg width="2230" height="552" viewBox="0 0 2230 552" fill="none" xmlns="http://www.w3.org/2000/svg">
<path d="M985.5 239.005V150.005L1958 140.505V182.005H2229V377.005H2087V413.005H1827.5V494.505H1644V551.005H948.5V494.505H684.5V415.005H0.5V314.505H324.5V224.005L648.5 239.005H985.5Z" fill="url(#paint0_linear_88_7322)" stroke="#0166EB" stroke-dasharray="10 10"/>
<path d="M742 99.0049V10.0049L1714.5 0.504883V42.0049H1985.5V237.005H1843.5V273.005H1584V354.505H1400.5V411.005H961.5V354.505H441V275.005H244V174.505H405V99.0049H742Z" fill="url(#paint1_linear_88_7322)" stroke="#0166EB" stroke-dasharray="10 10"/>
<g clip-path="url(#clip0_88_7322)">
<path d="M1443.83 7.50488H1310.5V140.838H1443.83V7.50488Z" stroke="white" stroke-opacity="0.21" stroke-width="1.75"/>
<path d="M1577.17 7.50488H1443.83V140.838H1577.17V7.50488Z" stroke="white" stroke-opacity="0.21" stroke-width="1.75"/>
<path d="M1710.5 7.50488H1577.17V140.838H1710.5V7.50488Z" stroke="white" stroke-opacity="0.21" stroke-width="1.75"/>
<path d="M1843.83 7.50488H1710.5V140.838H1843.83V7.50488Z" stroke="white" stroke-opacity="0.21" stroke-width="1.75"/>
<path d="M1977.17 7.50488H1843.83V140.838H1977.17V7.50488Z" stroke="white" stroke-opacity="0.21" stroke-width="1.75"/>
<path d="M2110.5 7.50488H1977.17V140.838H2110.5V7.50488Z" stroke="white" stroke-opacity="0.21" stroke-width="1.75"/>
<path d="M2243.83 7.50488H2110.5V140.838H2243.83V7.50488Z" stroke="white" stroke-opacity="0.21" stroke-width="1.75"/>
<path d="M1443.83 140.838H1310.5V274.171H1443.83V140.838Z" stroke="white" stroke-opacity="0.21" stroke-width="1.75"/>
<path d="M1577.17 140.838H1443.83V274.171H1577.17V140.838Z" stroke="white" stroke-opacity="0.21" stroke-width="1.75"/>
<path d="M1710.5 140.838H1577.17V274.171H1710.5V140.838Z" stroke="white" stroke-opacity="0.21" stroke-width="1.75"/>
<path d="M1843.83 140.838H1710.5V274.171H1843.83V140.838Z" stroke="white" stroke-opacity="0.21" stroke-width="1.75"/>
<path d="M1977.17 140.838H1843.83V274.171H1977.17V140.838Z" stroke="white" stroke-opacity="0.21" stroke-width="1.75"/>
<path d="M2110.5 140.838H1977.17V274.171H2110.5V140.838Z" stroke="white" stroke-opacity="0.21" stroke-width="1.75"/>
<path d="M2243.83 140.838H2110.5V274.171H2243.83V140.838Z" stroke="white" stroke-opacity="0.21" stroke-width="1.75"/>
<path d="M1443.83 274.172H1310.5V407.505H1443.83V274.172Z" stroke="white" stroke-opacity="0.21" stroke-width="1.75"/>
<path d="M1577.17 274.172H1443.83V407.505H1577.17V274.172Z" stroke="white" stroke-opacity="0.21" stroke-width="1.75"/>
<path d="M1710.5 274.172H1577.17V407.505H1710.5V274.172Z" stroke="white" stroke-opacity="0.21" stroke-width="1.75"/>
<path d="M1843.83 274.172H1710.5V407.505H1843.83V274.172Z" stroke="white" stroke-opacity="0.21" stroke-width="1.75"/>
<path d="M1977.17 274.172H1843.83V407.505H1977.17V274.172Z" stroke="white" stroke-opacity="0.21" stroke-width="1.75"/>
<path d="M2110.5 274.172H1977.17V407.505H2110.5V274.172Z" stroke="white" stroke-opacity="0.21" stroke-width="1.75"/>
<path d="M2243.83 274.172H2110.5V407.505H2243.83V274.172Z" stroke="white" stroke-opacity="0.21" stroke-width="1.75"/>
<path d="M1443.83 407.505H1310.5V540.838H1443.83V407.505Z" stroke="white" stroke-opacity="0.21" stroke-width="1.75"/>
<path d="M1577.17 407.505H1443.83V540.838H1577.17V407.505Z" stroke="white" stroke-opacity="0.21" stroke-width="1.75"/>
<path d="M1710.5 407.505H1577.17V540.838H1710.5V407.505Z" stroke="white" stroke-opacity="0.21" stroke-width="1.75"/>
<path d="M1843.83 407.505H1710.5V540.838H1843.83V407.505Z" stroke="white" stroke-opacity="0.21" stroke-width="1.75"/>
<path d="M1977.17 407.505H1843.83V540.838H1977.17V407.505Z" stroke="white" stroke-opacity="0.21" stroke-width="1.75"/>
<path d="M2110.5 407.505H1977.17V540.838H2110.5V407.505Z" stroke="white" stroke-opacity="0.21" stroke-width="1.75"/>
<path d="M2243.83 407.505H2110.5V540.838H2243.83V407.505Z" stroke="white" stroke-opacity="0.21" stroke-width="1.75"/>
<path d="M1443.83 540.838H1310.5V674.172H1443.83V540.838Z" stroke="white" stroke-opacity="0.21" stroke-width="1.75"/>
<path d="M1577.17 540.838H1443.83V674.172H1577.17V540.838Z" stroke="white" stroke-opacity="0.21" stroke-width="1.75"/>
<path d="M1710.5 540.838H1577.17V674.172H1710.5V540.838Z" stroke="white" stroke-opacity="0.21" stroke-width="1.75"/>
<path d="M1843.83 540.838H1710.5V674.172H1843.83V540.838Z" stroke="white" stroke-opacity="0.21" stroke-width="1.75"/>
<path d="M1977.17 540.838H1843.83V674.172H1977.17V540.838Z" stroke="white" stroke-opacity="0.21" stroke-width="1.75"/>
<path d="M2110.5 540.838H1977.17V674.172H2110.5V540.838Z" stroke="white" stroke-opacity="0.21" stroke-width="1.75"/>
<path d="M2243.83 540.838H2110.5V674.172H2243.83V540.838Z" stroke="white" stroke-opacity="0.21" stroke-width="1.75"/>
</g>
<g clip-path="url(#clip1_88_7322)">
<path d="M110.5 7.50488H-22.833V140.838H110.5V7.50488Z" stroke="white" stroke-opacity="0.21" stroke-width="1.75"/>
<path d="M243.833 7.50488H110.5V140.838H243.833V7.50488Z" stroke="white" stroke-opacity="0.21" stroke-width="1.75"/>
<path d="M377.166 7.50488H243.833V140.838H377.166V7.50488Z" stroke="white" stroke-opacity="0.21" stroke-width="1.75"/>
<path d="M510.5 7.50488H377.167V140.838H510.5V7.50488Z" stroke="white" stroke-opacity="0.21" stroke-width="1.75"/>
<path d="M643.833 7.50488H510.5V140.838H643.833V7.50488Z" stroke="white" stroke-opacity="0.21" stroke-width="1.75"/>
<path d="M110.5 140.838H-22.833V274.171H110.5V140.838Z" stroke="white" stroke-opacity="0.21" stroke-width="1.75"/>
<path d="M243.833 140.838H110.5V274.171H243.833V140.838Z" stroke="white" stroke-opacity="0.21" stroke-width="1.75"/>
<path d="M377.166 140.838H243.833V274.171H377.166V140.838Z" stroke="white" stroke-opacity="0.21" stroke-width="1.75"/>
<path d="M510.5 140.838H377.167V274.171H510.5V140.838Z" stroke="white" stroke-opacity="0.21" stroke-width="1.75"/>
<path d="M643.833 140.838H510.5V274.171H643.833V140.838Z" stroke="white" stroke-opacity="0.21" stroke-width="1.75"/>
<path d="M110.5 274.172H-22.833V407.505H110.5V274.172Z" stroke="white" stroke-opacity="0.21" stroke-width="1.75"/>
<path d="M243.833 274.172H110.5V407.505H243.833V274.172Z" stroke="white" stroke-opacity="0.21" stroke-width="1.75"/>
<path d="M377.166 274.172H243.833V407.505H377.166V274.172Z" stroke="white" stroke-opacity="0.21" stroke-width="1.75"/>
<path d="M510.5 274.172H377.167V407.505H510.5V274.172Z" stroke="white" stroke-opacity="0.21" stroke-width="1.75"/>
<path d="M643.833 274.172H510.5V407.505H643.833V274.172Z" stroke="white" stroke-opacity="0.21" stroke-width="1.75"/>
<path d="M110.5 407.505H-22.833V540.838H110.5V407.505Z" stroke="white" stroke-opacity="0.21" stroke-width="1.75"/>
<path d="M243.833 407.505H110.5V540.838H243.833V407.505Z" stroke="white" stroke-opacity="0.21" stroke-width="1.75"/>
<path d="M377.166 407.505H243.833V540.838H377.166V407.505Z" stroke="white" stroke-opacity="0.21" stroke-width="1.75"/>
<path d="M510.5 407.505H377.167V540.838H510.5V407.505Z" stroke="white" stroke-opacity="0.21" stroke-width="1.75"/>
<path d="M643.833 407.505H510.5V540.838H643.833V407.505Z" stroke="white" stroke-opacity="0.21" stroke-width="1.75"/>
<path d="M110.5 540.838H-22.833V674.172H110.5V540.838Z" stroke="white" stroke-opacity="0.21" stroke-width="1.75"/>
<path d="M243.833 540.838H110.5V674.172H243.833V540.838Z" stroke="white" stroke-opacity="0.21" stroke-width="1.75"/>
<path d="M377.166 540.838H243.833V674.172H377.166V540.838Z" stroke="white" stroke-opacity="0.21" stroke-width="1.75"/>
<path d="M510.5 540.838H377.167V674.172H510.5V540.838Z" stroke="white" stroke-opacity="0.21" stroke-width="1.75"/>
<path d="M643.833 540.838H510.5V674.172H643.833V540.838Z" stroke="white" stroke-opacity="0.21" stroke-width="1.75"/>
</g>
<path d="M643.833 7.50488H510.5V140.838H643.833V7.50488Z" stroke="url(#paint2_linear_88_7322)" stroke-opacity="0.22" stroke-width="1.75"/>
<path d="M777.166 7.50488H643.833V140.838H777.166V7.50488Z" stroke="url(#paint3_linear_88_7322)" stroke-opacity="0.22" stroke-width="1.75"/>
<path d="M910.5 7.50488H777.167V140.838H910.5V7.50488Z" stroke="url(#paint4_linear_88_7322)" stroke-opacity="0.22" stroke-width="1.75"/>
<path d="M1043.83 7.50488H910.5V140.838H1043.83V7.50488Z" stroke="url(#paint5_linear_88_7322)" stroke-opacity="0.22" stroke-width="1.75"/>
<path d="M1177.17 7.50488H1043.83V140.838H1177.17V7.50488Z" stroke="url(#paint6_linear_88_7322)" stroke-opacity="0.22" stroke-width="1.75"/>
<path d="M1310.5 7.50488H1177.17V140.838H1310.5V7.50488Z" stroke="url(#paint7_linear_88_7322)" stroke-opacity="0.22" stroke-width="1.75"/>
<path d="M1443.83 7.50488H1310.5V140.838H1443.83V7.50488Z" stroke="url(#paint8_linear_88_7322)" stroke-opacity="0.22" stroke-width="1.75"/>
<path d="M643.833 140.838H510.5V274.171H643.833V140.838Z" stroke="url(#paint9_linear_88_7322)" stroke-opacity="0.22" stroke-width="1.75"/>
<path d="M777.166 140.838H643.833V274.171H777.166V140.838Z" stroke="url(#paint10_linear_88_7322)" stroke-opacity="0.22" stroke-width="1.75"/>
<path d="M910.5 140.838H777.167V274.171H910.5V140.838Z" stroke="url(#paint11_linear_88_7322)" stroke-opacity="0.22" stroke-width="1.75"/>
<path d="M1043.83 140.838H910.5V274.171H1043.83V140.838Z" stroke="url(#paint12_linear_88_7322)" stroke-opacity="0.22" stroke-width="1.75"/>
<path d="M1177.17 140.838H1043.83V274.171H1177.17V140.838Z" stroke="url(#paint13_linear_88_7322)" stroke-opacity="0.22" stroke-width="1.75"/>
<path d="M1310.5 140.838H1177.17V274.171H1310.5V140.838Z" stroke="url(#paint14_linear_88_7322)" stroke-opacity="0.22" stroke-width="1.75"/>
<path d="M1443.83 140.838H1310.5V274.171H1443.83V140.838Z" stroke="url(#paint15_linear_88_7322)" stroke-opacity="0.22" stroke-width="1.75"/>
<path d="M643.833 274.172H510.5V407.505H643.833V274.172Z" stroke="url(#paint16_linear_88_7322)" stroke-opacity="0.22" stroke-width="1.75"/>
<path d="M777.166 274.172H643.833V407.505H777.166V274.172Z" stroke="url(#paint17_linear_88_7322)" stroke-opacity="0.22" stroke-width="1.75"/>
<path d="M910.5 274.172H777.167V407.505H910.5V274.172Z" stroke="url(#paint18_linear_88_7322)" stroke-opacity="0.22" stroke-width="1.75"/>
<path d="M1043.83 274.172H910.5V407.505H1043.83V274.172Z" stroke="url(#paint19_linear_88_7322)" stroke-opacity="0.22" stroke-width="1.75"/>
<path d="M1177.17 274.172H1043.83V407.505H1177.17V274.172Z" stroke="url(#paint20_linear_88_7322)" stroke-opacity="0.22" stroke-width="1.75"/>
<path d="M1310.5 274.172H1177.17V407.505H1310.5V274.172Z" stroke="url(#paint21_linear_88_7322)" stroke-opacity="0.22" stroke-width="1.75"/>
<path d="M1443.83 274.172H1310.5V407.505H1443.83V274.172Z" stroke="url(#paint22_linear_88_7322)" stroke-opacity="0.22" stroke-width="1.75"/>
<path d="M643.833 407.505H510.5V540.838H643.833V407.505Z" stroke="url(#paint23_linear_88_7322)" stroke-opacity="0.22" stroke-width="1.75"/>
<path d="M777.166 407.505H643.833V540.838H777.166V407.505Z" stroke="url(#paint24_linear_88_7322)" stroke-opacity="0.22" stroke-width="1.75"/>
<path d="M910.5 407.505H777.167V540.838H910.5V407.505Z" stroke="url(#paint25_linear_88_7322)" stroke-opacity="0.22" stroke-width="1.75"/>
<path d="M1043.83 407.505H910.5V540.838H1043.83V407.505Z" stroke="url(#paint26_linear_88_7322)" stroke-opacity="0.22" stroke-width="1.75"/>
<path d="M1177.17 407.505H1043.83V540.838H1177.17V407.505Z" stroke="url(#paint27_linear_88_7322)" stroke-opacity="0.22" stroke-width="1.75"/>
<path d="M1310.5 407.505H1177.17V540.838H1310.5V407.505Z" stroke="url(#paint28_linear_88_7322)" stroke-opacity="0.22" stroke-width="1.75"/>
<path d="M1443.83 407.505H1310.5V540.838H1443.83V407.505Z" stroke="url(#paint29_linear_88_7322)" stroke-opacity="0.22" stroke-width="1.75"/>
<path d="M643.833 540.838H510.5V674.172H643.833V540.838Z" stroke="url(#paint30_linear_88_7322)" stroke-opacity="0.22" stroke-width="1.75"/>
<path d="M777.166 540.838H643.833V674.172H777.166V540.838Z" stroke="url(#paint31_linear_88_7322)" stroke-opacity="0.22" stroke-width="1.75"/>
<path d="M910.5 540.838H777.167V674.172H910.5V540.838Z" stroke="url(#paint32_linear_88_7322)" stroke-opacity="0.22" stroke-width="1.75"/>
<path d="M1043.83 540.838H910.5V674.172H1043.83V540.838Z" stroke="url(#paint33_linear_88_7322)" stroke-opacity="0.22" stroke-width="1.75"/>
<path d="M1177.17 540.838H1043.83V674.172H1177.17V540.838Z" stroke="url(#paint34_linear_88_7322)" stroke-opacity="0.22" stroke-width="1.75"/>
<path d="M1310.5 540.838H1177.17V674.172H1310.5V540.838Z" stroke="url(#paint35_linear_88_7322)" stroke-opacity="0.22" stroke-width="1.75"/>
<path d="M1443.83 540.838H1310.5V674.172H1443.83V540.838Z" stroke="url(#paint36_linear_88_7322)" stroke-opacity="0.22" stroke-width="1.75"/>
<defs>
<linearGradient id="paint0_linear_88_7322" x1="1358.25" y1="140.505" x2="1358.25" y2="551.005" gradientUnits="userSpaceOnUse">
<stop stop-color="#42FF91"/>
<stop offset="1" stop-color="#76F6FF"/>
</linearGradient>
<linearGradient id="paint1_linear_88_7322" x1="1114.75" y1="0.504883" x2="1114.75" y2="411.005" gradientUnits="userSpaceOnUse">
<stop stop-color="#01DFC2"/>
<stop offset="1" stop-color="#00B1D1"/>
</linearGradient>
<linearGradient id="paint2_linear_88_7322" x1="577.167" y1="7.50488" x2="577.167" y2="140.838" gradientUnits="userSpaceOnUse">
<stop stop-color="white"/>
<stop offset="1" stop-color="#028EDE"/>
</linearGradient>
<linearGradient id="paint3_linear_88_7322" x1="710.5" y1="7.50488" x2="710.5" y2="140.838" gradientUnits="userSpaceOnUse">
<stop stop-color="white"/>
<stop offset="1" stop-color="#028EDE"/>
</linearGradient>
<linearGradient id="paint4_linear_88_7322" x1="843.834" y1="7.50488" x2="843.834" y2="140.838" gradientUnits="userSpaceOnUse">
<stop stop-color="white"/>
<stop offset="1" stop-color="#028EDE"/>
</linearGradient>
<linearGradient id="paint5_linear_88_7322" x1="977.167" y1="7.50488" x2="977.167" y2="140.838" gradientUnits="userSpaceOnUse">
<stop stop-color="white"/>
<stop offset="1" stop-color="#028EDE"/>
</linearGradient>
<linearGradient id="paint6_linear_88_7322" x1="1110.5" y1="7.50488" x2="1110.5" y2="140.838" gradientUnits="userSpaceOnUse">
<stop stop-color="white"/>
<stop offset="1" stop-color="#028EDE"/>
</linearGradient>
<linearGradient id="paint7_linear_88_7322" x1="1243.83" y1="7.50488" x2="1243.83" y2="140.838" gradientUnits="userSpaceOnUse">
<stop stop-color="white"/>
<stop offset="1" stop-color="#028EDE"/>
</linearGradient>
<linearGradient id="paint8_linear_88_7322" x1="1377.17" y1="7.50488" x2="1377.17" y2="140.838" gradientUnits="userSpaceOnUse">
<stop stop-color="white"/>
<stop offset="1" stop-color="#028EDE"/>
</linearGradient>
<linearGradient id="paint9_linear_88_7322" x1="577.167" y1="140.838" x2="577.167" y2="274.171" gradientUnits="userSpaceOnUse">
<stop stop-color="white"/>
<stop offset="1" stop-color="#028EDE"/>
</linearGradient>
<linearGradient id="paint10_linear_88_7322" x1="710.5" y1="140.838" x2="710.5" y2="274.171" gradientUnits="userSpaceOnUse">
<stop stop-color="white"/>
<stop offset="1" stop-color="#028EDE"/>
</linearGradient>
<linearGradient id="paint11_linear_88_7322" x1="843.834" y1="140.838" x2="843.834" y2="274.171" gradientUnits="userSpaceOnUse">
<stop stop-color="white"/>
<stop offset="1" stop-color="#028EDE"/>
</linearGradient>
<linearGradient id="paint12_linear_88_7322" x1="977.167" y1="140.838" x2="977.167" y2="274.171" gradientUnits="userSpaceOnUse">
<stop stop-color="white"/>
<stop offset="1" stop-color="#028EDE"/>
</linearGradient>
<linearGradient id="paint13_linear_88_7322" x1="1110.5" y1="140.838" x2="1110.5" y2="274.171" gradientUnits="userSpaceOnUse">
<stop stop-color="white"/>
<stop offset="1" stop-color="#028EDE"/>
</linearGradient>
<linearGradient id="paint14_linear_88_7322" x1="1243.83" y1="140.838" x2="1243.83" y2="274.171" gradientUnits="userSpaceOnUse">
<stop stop-color="white"/>
<stop offset="1" stop-color="#028EDE"/>
</linearGradient>
<linearGradient id="paint15_linear_88_7322" x1="1377.17" y1="140.838" x2="1377.17" y2="274.171" gradientUnits="userSpaceOnUse">
<stop stop-color="white"/>
<stop offset="1" stop-color="#028EDE"/>
</linearGradient>
<linearGradient id="paint16_linear_88_7322" x1="577.167" y1="274.172" x2="577.167" y2="407.505" gradientUnits="userSpaceOnUse">
<stop stop-color="white"/>
<stop offset="1" stop-color="#028EDE"/>
</linearGradient>
<linearGradient id="paint17_linear_88_7322" x1="710.5" y1="274.172" x2="710.5" y2="407.505" gradientUnits="userSpaceOnUse">
<stop stop-color="white"/>
<stop offset="1" stop-color="#028EDE"/>
</linearGradient>
<linearGradient id="paint18_linear_88_7322" x1="843.834" y1="274.172" x2="843.834" y2="407.505" gradientUnits="userSpaceOnUse">
<stop stop-color="white"/>
<stop offset="1" stop-color="#028EDE"/>
</linearGradient>
<linearGradient id="paint19_linear_88_7322" x1="977.167" y1="274.172" x2="977.167" y2="407.505" gradientUnits="userSpaceOnUse">
<stop stop-color="white"/>
<stop offset="1" stop-color="#028EDE"/>
</linearGradient>
<linearGradient id="paint20_linear_88_7322" x1="1110.5" y1="274.172" x2="1110.5" y2="407.505" gradientUnits="userSpaceOnUse">
<stop stop-color="white"/>
<stop offset="1" stop-color="#028EDE"/>
</linearGradient>
<linearGradient id="paint21_linear_88_7322" x1="1243.83" y1="274.172" x2="1243.83" y2="407.505" gradientUnits="userSpaceOnUse">
<stop stop-color="white"/>
<stop offset="1" stop-color="#028EDE"/>
</linearGradient>
<linearGradient id="paint22_linear_88_7322" x1="1377.17" y1="274.172" x2="1377.17" y2="407.505" gradientUnits="userSpaceOnUse">
<stop stop-color="white"/>
<stop offset="1" stop-color="#028EDE"/>
</linearGradient>
<linearGradient id="paint23_linear_88_7322" x1="577.167" y1="407.505" x2="577.167" y2="540.838" gradientUnits="userSpaceOnUse">
<stop stop-color="white"/>
<stop offset="1" stop-color="#028EDE"/>
</linearGradient>
<linearGradient id="paint24_linear_88_7322" x1="710.5" y1="407.505" x2="710.5" y2="540.838" gradientUnits="userSpaceOnUse">
<stop stop-color="white"/>
<stop offset="1" stop-color="#028EDE"/>
</linearGradient>
<linearGradient id="paint25_linear_88_7322" x1="843.834" y1="407.505" x2="843.834" y2="540.838" gradientUnits="userSpaceOnUse">
<stop stop-color="white"/>
<stop offset="1" stop-color="#028EDE"/>
</linearGradient>
<linearGradient id="paint26_linear_88_7322" x1="977.167" y1="407.505" x2="977.167" y2="540.838" gradientUnits="userSpaceOnUse">
<stop stop-color="white"/>
<stop offset="1" stop-color="#028EDE"/>
</linearGradient>
<linearGradient id="paint27_linear_88_7322" x1="1110.5" y1="407.505" x2="1110.5" y2="540.838" gradientUnits="userSpaceOnUse">
<stop stop-color="white"/>
<stop offset="1" stop-color="#028EDE"/>
</linearGradient>
<linearGradient id="paint28_linear_88_7322" x1="1243.83" y1="407.505" x2="1243.83" y2="540.838" gradientUnits="userSpaceOnUse">
<stop stop-color="white"/>
<stop offset="1" stop-color="#028EDE"/>
</linearGradient>
<linearGradient id="paint29_linear_88_7322" x1="1377.17" y1="407.505" x2="1377.17" y2="540.838" gradientUnits="userSpaceOnUse">
<stop stop-color="white"/>
<stop offset="1" stop-color="#028EDE"/>
</linearGradient>
<linearGradient id="paint30_linear_88_7322" x1="577.167" y1="540.838" x2="577.167" y2="674.172" gradientUnits="userSpaceOnUse">
<stop stop-color="white"/>
<stop offset="1" stop-color="#028EDE"/>
</linearGradient>
<linearGradient id="paint31_linear_88_7322" x1="710.5" y1="540.838" x2="710.5" y2="674.172" gradientUnits="userSpaceOnUse">
<stop stop-color="white"/>
<stop offset="1" stop-color="#028EDE"/>
</linearGradient>
<linearGradient id="paint32_linear_88_7322" x1="843.834" y1="540.838" x2="843.834" y2="674.172" gradientUnits="userSpaceOnUse">
<stop stop-color="white"/>
<stop offset="1" stop-color="#028EDE"/>
</linearGradient>
<linearGradient id="paint33_linear_88_7322" x1="977.167" y1="540.838" x2="977.167" y2="674.172" gradientUnits="userSpaceOnUse">
<stop stop-color="white"/>
<stop offset="1" stop-color="#028EDE"/>
</linearGradient>
<linearGradient id="paint34_linear_88_7322" x1="1110.5" y1="540.838" x2="1110.5" y2="674.172" gradientUnits="userSpaceOnUse">
<stop stop-color="white"/>
<stop offset="1" stop-color="#028EDE"/>
</linearGradient>
<linearGradient id="paint35_linear_88_7322" x1="1243.83" y1="540.838" x2="1243.83" y2="674.172" gradientUnits="userSpaceOnUse">
<stop stop-color="white"/>
<stop offset="1" stop-color="#028EDE"/>
</linearGradient>
<linearGradient id="paint36_linear_88_7322" x1="1377.17" y1="540.838" x2="1377.17" y2="674.172" gradientUnits="userSpaceOnUse">
<stop stop-color="white"/>
<stop offset="1" stop-color="#028EDE"/>
</linearGradient>
<clipPath id="clip0_88_7322">
<rect width="800" height="800" fill="white" transform="translate(1310.5 7.50488)"/>
</clipPath>
<clipPath id="clip1_88_7322">
<rect width="800" height="800" fill="white" transform="translate(-289.5 7.50488)"/>
</clipPath>
</defs>
</svg>
