<svg width="1331" height="533" viewBox="0 0 1331 533" fill="none" xmlns="http://www.w3.org/2000/svg">
<path d="M640 532.5H213.5V337.5H275.5V231.5H459.5V132.5H618V93H1028V197.5H1226.5V272.5H1330V494H1125V434.5H1063V337.5H691V434.5H640V532.5Z" fill="url(#paint0_linear_88_7322)" stroke="#0166EB" stroke-dasharray="10 10"/>
<path d="M427 440H0.5V245H62.5V139H246.5V40H405V0.5H815V105H1013.5V180H1117V401.5H912V342H850V245H478V342H427V440Z" fill="url(#paint1_linear_88_7322)" stroke="#0166EB" stroke-dasharray="10 10"/>
<g clip-path="url(#clip0_88_7322)">
<path d="M850.833 -133.167H717.5V0.16658H850.833V-133.167Z" stroke="url(#paint2_linear_88_7322)" stroke-opacity="0.22" stroke-width="1.75"/>
<path d="M984.166 -133.167H850.833V0.16658H984.166V-133.167Z" stroke="url(#paint3_linear_88_7322)" stroke-opacity="0.22" stroke-width="1.75"/>
<path d="M1117.5 -133.167H984.167V0.16658H1117.5V-133.167Z" stroke="url(#paint4_linear_88_7322)" stroke-opacity="0.22" stroke-width="1.75"/>
<path d="M1250.83 -133.167H1117.5V0.16658H1250.83V-133.167Z" stroke="url(#paint5_linear_88_7322)" stroke-opacity="0.22" stroke-width="1.75"/>
<path d="M1384.17 -133.167H1250.83V0.16658H1384.17V-133.167Z" stroke="url(#paint6_linear_88_7322)" stroke-opacity="0.22" stroke-width="1.75"/>
<path d="M850.833 0.166748H717.5V133.5H850.833V0.166748Z" stroke="url(#paint7_linear_88_7322)" stroke-opacity="0.22" stroke-width="1.75"/>
<path d="M984.166 0.166748H850.833V133.5H984.166V0.166748Z" stroke="url(#paint8_linear_88_7322)" stroke-opacity="0.22" stroke-width="1.75"/>
<path d="M1117.5 0.166748H984.167V133.5H1117.5V0.166748Z" stroke="url(#paint9_linear_88_7322)" stroke-opacity="0.22" stroke-width="1.75"/>
<path d="M1250.83 0.166748H1117.5V133.5H1250.83V0.166748Z" stroke="url(#paint10_linear_88_7322)" stroke-opacity="0.22" stroke-width="1.75"/>
<path d="M1384.17 0.166748H1250.83V133.5H1384.17V0.166748Z" stroke="url(#paint11_linear_88_7322)" stroke-opacity="0.22" stroke-width="1.75"/>
<path d="M850.833 133.5H717.5V266.833H850.833V133.5Z" stroke="url(#paint12_linear_88_7322)" stroke-opacity="0.22" stroke-width="1.75"/>
<path d="M984.166 133.5H850.833V266.833H984.166V133.5Z" stroke="url(#paint13_linear_88_7322)" stroke-opacity="0.22" stroke-width="1.75"/>
<path d="M1117.5 133.5H984.167V266.833H1117.5V133.5Z" stroke="url(#paint14_linear_88_7322)" stroke-opacity="0.22" stroke-width="1.75"/>
<path d="M1250.83 133.5H1117.5V266.833H1250.83V133.5Z" stroke="url(#paint15_linear_88_7322)" stroke-opacity="0.22" stroke-width="1.75"/>
<path d="M1384.17 133.5H1250.83V266.833H1384.17V133.5Z" stroke="url(#paint16_linear_88_7322)" stroke-opacity="0.22" stroke-width="1.75"/>
<path d="M850.833 266.833H717.5V400.167H850.833V266.833Z" stroke="url(#paint17_linear_88_7322)" stroke-opacity="0.22" stroke-width="1.75"/>
<path d="M984.166 266.833H850.833V400.167H984.166V266.833Z" stroke="url(#paint18_linear_88_7322)" stroke-opacity="0.22" stroke-width="1.75"/>
<path d="M1117.5 266.833H984.167V400.167H1117.5V266.833Z" stroke="url(#paint19_linear_88_7322)" stroke-opacity="0.22" stroke-width="1.75"/>
<path d="M1250.83 266.833H1117.5V400.167H1250.83V266.833Z" stroke="url(#paint20_linear_88_7322)" stroke-opacity="0.22" stroke-width="1.75"/>
<path d="M1384.17 266.833H1250.83V400.167H1384.17V266.833Z" stroke="url(#paint21_linear_88_7322)" stroke-opacity="0.22" stroke-width="1.75"/>
<path d="M850.833 400.167H717.5V533.5H850.833V400.167Z" stroke="url(#paint22_linear_88_7322)" stroke-opacity="0.22" stroke-width="1.75"/>
<path d="M984.166 400.167H850.833V533.5H984.166V400.167Z" stroke="url(#paint23_linear_88_7322)" stroke-opacity="0.22" stroke-width="1.75"/>
<path d="M1117.5 400.167H984.167V533.5H1117.5V400.167Z" stroke="url(#paint24_linear_88_7322)" stroke-opacity="0.22" stroke-width="1.75"/>
<path d="M1250.83 400.167H1117.5V533.5H1250.83V400.167Z" stroke="url(#paint25_linear_88_7322)" stroke-opacity="0.22" stroke-width="1.75"/>
<path d="M1384.17 400.167H1250.83V533.5H1384.17V400.167Z" stroke="url(#paint26_linear_88_7322)" stroke-opacity="0.22" stroke-width="1.75"/>
<path d="M850.833 533.5H717.5V666.833H850.833V533.5Z" stroke="url(#paint27_linear_88_7322)" stroke-opacity="0.22" stroke-width="1.75"/>
<path d="M984.166 533.5H850.833V666.833H984.166V533.5Z" stroke="url(#paint28_linear_88_7322)" stroke-opacity="0.22" stroke-width="1.75"/>
<path d="M1117.5 533.5H984.167V666.833H1117.5V533.5Z" stroke="url(#paint29_linear_88_7322)" stroke-opacity="0.22" stroke-width="1.75"/>
<path d="M1250.83 533.5H1117.5V666.833H1250.83V533.5Z" stroke="url(#paint30_linear_88_7322)" stroke-opacity="0.22" stroke-width="1.75"/>
<path d="M1384.17 533.5H1250.83V666.833H1384.17V533.5Z" stroke="url(#paint31_linear_88_7322)" stroke-opacity="0.22" stroke-width="1.75"/>
</g>
<g clip-path="url(#clip1_88_7322)">
<path d="M50.8333 -133.167H-82.5V0.16658H50.8333V-133.167Z" stroke="white" stroke-opacity="0.21" stroke-width="1.75"/>
<path d="M184.166 -133.167H50.833V0.16658H184.166V-133.167Z" stroke="white" stroke-opacity="0.21" stroke-width="1.75"/>
<path d="M317.5 -133.167H184.167V0.16658H317.5V-133.167Z" stroke="white" stroke-opacity="0.21" stroke-width="1.75"/>
<path d="M450.833 -133.167H317.5V0.16658H450.833V-133.167Z" stroke="white" stroke-opacity="0.21" stroke-width="1.75"/>
<path d="M584.166 -133.167H450.833V0.16658H584.166V-133.167Z" stroke="white" stroke-opacity="0.21" stroke-width="1.75"/>
<path d="M717.5 -133.167H584.167V0.16658H717.5V-133.167Z" stroke="white" stroke-opacity="0.21" stroke-width="1.75"/>
<path d="M850.833 -133.167H717.5V0.16658H850.833V-133.167Z" stroke="white" stroke-opacity="0.21" stroke-width="1.75"/>
<path d="M50.8333 0.166748H-82.5V133.5H50.8333V0.166748Z" stroke="white" stroke-opacity="0.21" stroke-width="1.75"/>
<path d="M184.166 0.166748H50.833V133.5H184.166V0.166748Z" stroke="white" stroke-opacity="0.21" stroke-width="1.75"/>
<path d="M317.5 0.166748H184.167V133.5H317.5V0.166748Z" stroke="white" stroke-opacity="0.21" stroke-width="1.75"/>
<path d="M450.833 0.166748H317.5V133.5H450.833V0.166748Z" stroke="white" stroke-opacity="0.21" stroke-width="1.75"/>
<path d="M584.166 0.166748H450.833V133.5H584.166V0.166748Z" stroke="white" stroke-opacity="0.21" stroke-width="1.75"/>
<path d="M717.5 0.166748H584.167V133.5H717.5V0.166748Z" stroke="white" stroke-opacity="0.21" stroke-width="1.75"/>
<path d="M850.833 0.166748H717.5V133.5H850.833V0.166748Z" stroke="white" stroke-opacity="0.21" stroke-width="1.75"/>
<path d="M50.8333 133.5H-82.5V266.833H50.8333V133.5Z" stroke="white" stroke-opacity="0.21" stroke-width="1.75"/>
<path d="M184.166 133.5H50.833V266.833H184.166V133.5Z" stroke="white" stroke-opacity="0.21" stroke-width="1.75"/>
<path d="M317.5 133.5H184.167V266.833H317.5V133.5Z" stroke="white" stroke-opacity="0.21" stroke-width="1.75"/>
<path d="M450.833 133.5H317.5V266.833H450.833V133.5Z" stroke="white" stroke-opacity="0.21" stroke-width="1.75"/>
<path d="M584.166 133.5H450.833V266.833H584.166V133.5Z" stroke="white" stroke-opacity="0.21" stroke-width="1.75"/>
<path d="M717.5 133.5H584.167V266.833H717.5V133.5Z" stroke="white" stroke-opacity="0.21" stroke-width="1.75"/>
<path d="M850.833 133.5H717.5V266.833H850.833V133.5Z" stroke="white" stroke-opacity="0.21" stroke-width="1.75"/>
<path d="M50.8333 266.833H-82.5V400.167H50.8333V266.833Z" stroke="white" stroke-opacity="0.21" stroke-width="1.75"/>
<path d="M184.166 266.833H50.833V400.167H184.166V266.833Z" stroke="white" stroke-opacity="0.21" stroke-width="1.75"/>
<path d="M317.5 266.833H184.167V400.167H317.5V266.833Z" stroke="white" stroke-opacity="0.21" stroke-width="1.75"/>
<path d="M450.833 266.833H317.5V400.167H450.833V266.833Z" stroke="white" stroke-opacity="0.21" stroke-width="1.75"/>
<path d="M584.166 266.833H450.833V400.167H584.166V266.833Z" stroke="white" stroke-opacity="0.21" stroke-width="1.75"/>
<path d="M717.5 266.833H584.167V400.167H717.5V266.833Z" stroke="white" stroke-opacity="0.21" stroke-width="1.75"/>
<path d="M850.833 266.833H717.5V400.167H850.833V266.833Z" stroke="white" stroke-opacity="0.21" stroke-width="1.75"/>
<path d="M50.8333 400.167H-82.5V533.5H50.8333V400.167Z" stroke="white" stroke-opacity="0.21" stroke-width="1.75"/>
<path d="M184.166 400.167H50.833V533.5H184.166V400.167Z" stroke="white" stroke-opacity="0.21" stroke-width="1.75"/>
<path d="M317.5 400.167H184.167V533.5H317.5V400.167Z" stroke="white" stroke-opacity="0.21" stroke-width="1.75"/>
<path d="M450.833 400.167H317.5V533.5H450.833V400.167Z" stroke="white" stroke-opacity="0.21" stroke-width="1.75"/>
<path d="M584.166 400.167H450.833V533.5H584.166V400.167Z" stroke="white" stroke-opacity="0.21" stroke-width="1.75"/>
<path d="M717.5 400.167H584.167V533.5H717.5V400.167Z" stroke="white" stroke-opacity="0.21" stroke-width="1.75"/>
<path d="M850.833 400.167H717.5V533.5H850.833V400.167Z" stroke="white" stroke-opacity="0.21" stroke-width="1.75"/>
<path d="M50.8333 533.5H-82.5V666.833H50.8333V533.5Z" stroke="white" stroke-opacity="0.21" stroke-width="1.75"/>
<path d="M184.166 533.5H50.833V666.833H184.166V533.5Z" stroke="white" stroke-opacity="0.21" stroke-width="1.75"/>
<path d="M317.5 533.5H184.167V666.833H317.5V533.5Z" stroke="white" stroke-opacity="0.21" stroke-width="1.75"/>
<path d="M450.833 533.5H317.5V666.833H450.833V533.5Z" stroke="white" stroke-opacity="0.21" stroke-width="1.75"/>
<path d="M584.166 533.5H450.833V666.833H584.166V533.5Z" stroke="white" stroke-opacity="0.21" stroke-width="1.75"/>
<path d="M717.5 533.5H584.167V666.833H717.5V533.5Z" stroke="white" stroke-opacity="0.21" stroke-width="1.75"/>
<path d="M850.833 533.5H717.5V666.833H850.833V533.5Z" stroke="white" stroke-opacity="0.21" stroke-width="1.75"/>
</g>
<defs>
<linearGradient id="paint0_linear_88_7322" x1="771.75" y1="93" x2="771.75" y2="532.5" gradientUnits="userSpaceOnUse">
<stop stop-color="#02F9B9"/>
<stop offset="1" stop-color="#0187E0"/>
</linearGradient>
<linearGradient id="paint1_linear_88_7322" x1="558.75" y1="0.5" x2="558.75" y2="440" gradientUnits="userSpaceOnUse">
<stop stop-color="#02F9B9"/>
<stop offset="1" stop-color="#01E07F"/>
</linearGradient>
<linearGradient id="paint2_linear_88_7322" x1="784.167" y1="-133.167" x2="784.167" y2="0.16658" gradientUnits="userSpaceOnUse">
<stop stop-color="white"/>
<stop offset="1" stop-color="#028EDE"/>
</linearGradient>
<linearGradient id="paint3_linear_88_7322" x1="917.5" y1="-133.167" x2="917.5" y2="0.16658" gradientUnits="userSpaceOnUse">
<stop stop-color="white"/>
<stop offset="1" stop-color="#028EDE"/>
</linearGradient>
<linearGradient id="paint4_linear_88_7322" x1="1050.83" y1="-133.167" x2="1050.83" y2="0.16658" gradientUnits="userSpaceOnUse">
<stop stop-color="white"/>
<stop offset="1" stop-color="#028EDE"/>
</linearGradient>
<linearGradient id="paint5_linear_88_7322" x1="1184.17" y1="-133.167" x2="1184.17" y2="0.16658" gradientUnits="userSpaceOnUse">
<stop stop-color="white"/>
<stop offset="1" stop-color="#028EDE"/>
</linearGradient>
<linearGradient id="paint6_linear_88_7322" x1="1317.5" y1="-133.167" x2="1317.5" y2="0.16658" gradientUnits="userSpaceOnUse">
<stop stop-color="white"/>
<stop offset="1" stop-color="#028EDE"/>
</linearGradient>
<linearGradient id="paint7_linear_88_7322" x1="784.167" y1="0.166748" x2="784.167" y2="133.5" gradientUnits="userSpaceOnUse">
<stop stop-color="white"/>
<stop offset="1" stop-color="#028EDE"/>
</linearGradient>
<linearGradient id="paint8_linear_88_7322" x1="917.5" y1="0.166748" x2="917.5" y2="133.5" gradientUnits="userSpaceOnUse">
<stop stop-color="white"/>
<stop offset="1" stop-color="#028EDE"/>
</linearGradient>
<linearGradient id="paint9_linear_88_7322" x1="1050.83" y1="0.166748" x2="1050.83" y2="133.5" gradientUnits="userSpaceOnUse">
<stop stop-color="white"/>
<stop offset="1" stop-color="#028EDE"/>
</linearGradient>
<linearGradient id="paint10_linear_88_7322" x1="1184.17" y1="0.166748" x2="1184.17" y2="133.5" gradientUnits="userSpaceOnUse">
<stop stop-color="white"/>
<stop offset="1" stop-color="#028EDE"/>
</linearGradient>
<linearGradient id="paint11_linear_88_7322" x1="1317.5" y1="0.166748" x2="1317.5" y2="133.5" gradientUnits="userSpaceOnUse">
<stop stop-color="white"/>
<stop offset="1" stop-color="#028EDE"/>
</linearGradient>
<linearGradient id="paint12_linear_88_7322" x1="784.167" y1="133.5" x2="784.167" y2="266.833" gradientUnits="userSpaceOnUse">
<stop stop-color="white"/>
<stop offset="1" stop-color="#028EDE"/>
</linearGradient>
<linearGradient id="paint13_linear_88_7322" x1="917.5" y1="133.5" x2="917.5" y2="266.833" gradientUnits="userSpaceOnUse">
<stop stop-color="white"/>
<stop offset="1" stop-color="#028EDE"/>
</linearGradient>
<linearGradient id="paint14_linear_88_7322" x1="1050.83" y1="133.5" x2="1050.83" y2="266.833" gradientUnits="userSpaceOnUse">
<stop stop-color="white"/>
<stop offset="1" stop-color="#028EDE"/>
</linearGradient>
<linearGradient id="paint15_linear_88_7322" x1="1184.17" y1="133.5" x2="1184.17" y2="266.833" gradientUnits="userSpaceOnUse">
<stop stop-color="white"/>
<stop offset="1" stop-color="#028EDE"/>
</linearGradient>
<linearGradient id="paint16_linear_88_7322" x1="1317.5" y1="133.5" x2="1317.5" y2="266.833" gradientUnits="userSpaceOnUse">
<stop stop-color="white"/>
<stop offset="1" stop-color="#028EDE"/>
</linearGradient>
<linearGradient id="paint17_linear_88_7322" x1="784.167" y1="266.833" x2="784.167" y2="400.167" gradientUnits="userSpaceOnUse">
<stop stop-color="white"/>
<stop offset="1" stop-color="#028EDE"/>
</linearGradient>
<linearGradient id="paint18_linear_88_7322" x1="917.5" y1="266.833" x2="917.5" y2="400.167" gradientUnits="userSpaceOnUse">
<stop stop-color="white"/>
<stop offset="1" stop-color="#028EDE"/>
</linearGradient>
<linearGradient id="paint19_linear_88_7322" x1="1050.83" y1="266.833" x2="1050.83" y2="400.167" gradientUnits="userSpaceOnUse">
<stop stop-color="white"/>
<stop offset="1" stop-color="#028EDE"/>
</linearGradient>
<linearGradient id="paint20_linear_88_7322" x1="1184.17" y1="266.833" x2="1184.17" y2="400.167" gradientUnits="userSpaceOnUse">
<stop stop-color="white"/>
<stop offset="1" stop-color="#028EDE"/>
</linearGradient>
<linearGradient id="paint21_linear_88_7322" x1="1317.5" y1="266.833" x2="1317.5" y2="400.167" gradientUnits="userSpaceOnUse">
<stop stop-color="white"/>
<stop offset="1" stop-color="#028EDE"/>
</linearGradient>
<linearGradient id="paint22_linear_88_7322" x1="784.167" y1="400.167" x2="784.167" y2="533.5" gradientUnits="userSpaceOnUse">
<stop stop-color="white"/>
<stop offset="1" stop-color="#028EDE"/>
</linearGradient>
<linearGradient id="paint23_linear_88_7322" x1="917.5" y1="400.167" x2="917.5" y2="533.5" gradientUnits="userSpaceOnUse">
<stop stop-color="white"/>
<stop offset="1" stop-color="#028EDE"/>
</linearGradient>
<linearGradient id="paint24_linear_88_7322" x1="1050.83" y1="400.167" x2="1050.83" y2="533.5" gradientUnits="userSpaceOnUse">
<stop stop-color="white"/>
<stop offset="1" stop-color="#028EDE"/>
</linearGradient>
<linearGradient id="paint25_linear_88_7322" x1="1184.17" y1="400.167" x2="1184.17" y2="533.5" gradientUnits="userSpaceOnUse">
<stop stop-color="white"/>
<stop offset="1" stop-color="#028EDE"/>
</linearGradient>
<linearGradient id="paint26_linear_88_7322" x1="1317.5" y1="400.167" x2="1317.5" y2="533.5" gradientUnits="userSpaceOnUse">
<stop stop-color="white"/>
<stop offset="1" stop-color="#028EDE"/>
</linearGradient>
<linearGradient id="paint27_linear_88_7322" x1="784.167" y1="533.5" x2="784.167" y2="666.833" gradientUnits="userSpaceOnUse">
<stop stop-color="white"/>
<stop offset="1" stop-color="#028EDE"/>
</linearGradient>
<linearGradient id="paint28_linear_88_7322" x1="917.5" y1="533.5" x2="917.5" y2="666.833" gradientUnits="userSpaceOnUse">
<stop stop-color="white"/>
<stop offset="1" stop-color="#028EDE"/>
</linearGradient>
<linearGradient id="paint29_linear_88_7322" x1="1050.83" y1="533.5" x2="1050.83" y2="666.833" gradientUnits="userSpaceOnUse">
<stop stop-color="white"/>
<stop offset="1" stop-color="#028EDE"/>
</linearGradient>
<linearGradient id="paint30_linear_88_7322" x1="1184.17" y1="533.5" x2="1184.17" y2="666.833" gradientUnits="userSpaceOnUse">
<stop stop-color="white"/>
<stop offset="1" stop-color="#028EDE"/>
</linearGradient>
<linearGradient id="paint31_linear_88_7322" x1="1317.5" y1="533.5" x2="1317.5" y2="666.833" gradientUnits="userSpaceOnUse">
<stop stop-color="white"/>
<stop offset="1" stop-color="#028EDE"/>
</linearGradient>
<clipPath id="clip0_88_7322">
<rect width="800" height="800" fill="white" transform="translate(717.5 -266.5)"/>
</clipPath>
<clipPath id="clip1_88_7322">
<rect width="800" height="800" fill="white" transform="translate(-82.5 -266.5)"/>
</clipPath>
</defs>
</svg>
