<svg width="1720" height="5259" viewBox="0 0 1720 5259" fill="none" xmlns="http://www.w3.org/2000/svg">
<g clip-path="url(#clip0_86_269)">
<rect width="1720" height="5259" fill="white"/>
<g clip-path="url(#clip1_86_269)">
<rect width="1720" height="4258" transform="translate(0 1001)" fill="white"/>
<path d="M-50 1634L1707.5 1637.5" stroke="#0166EB" stroke-dasharray="10 10"/>
<g filter="url(#filter0_f_86_269)">
<path d="M1662.78 3779.85L1396.06 3699L1095 3872.76L1253.45 4238L1662.78 4180.55L1845 3995.45L1662.78 3779.85Z" fill="url(#paint0_linear_86_269)" fill-opacity="0.3"/>
</g>
<g filter="url(#filter1_f_86_269)">
<path d="M335.813 4554.7L130.613 4489L-101 4630.2L20.9014 4927L335.813 4880.32L476 4729.9L335.813 4554.7Z" fill="url(#paint1_linear_86_269)" fill-opacity="0.3"/>
</g>
<path d="M1670 5254L1670.08 688" stroke="#0166EB" stroke-dasharray="10 10"/>
<path d="M1534 6314L1551 1638" stroke="#0166EB" stroke-dasharray="10 10"/>
<g filter="url(#filter2_f_86_269)">
<path d="M222.761 1591.7L83.3521 1526L-74 1667.2L8.8169 1964L222.761 1917.32L318 1766.9L222.761 1591.7Z" fill="url(#paint2_linear_86_269)" fill-opacity="0.5"/>
</g>
<path d="M1143 1636C1410.74 1636 1670 1814.33 1670 2066" stroke="#0166EB" stroke-linecap="round" stroke-dasharray="10 10"/>
<path d="M1549.45 2062C1554.55 2370.33 1597.07 2501.52 1730.45 2675" stroke="#0166EB" stroke-linecap="round" stroke-dasharray="10 10"/>
<path d="M0 4386C5.29498 4078.17 49.463 3947.19 188 3774" stroke="#0166EB" stroke-linecap="round" stroke-dasharray="10 10"/>
<path d="M-182 2052.5C-176.705 2360.33 -153 2633.5 206 2650" stroke="#0166EB" stroke-linecap="round" stroke-dasharray="10 10"/>
<g filter="url(#filter3_f_86_269)">
<path d="M1823.12 1532.5L1539.32 1414L1219 1668.67L1387.59 2204L1823.12 2119.8L2017 1848.5L1823.12 1532.5Z" fill="url(#paint3_linear_86_269)" fill-opacity="0.2"/>
</g>
<g filter="url(#filter4_f_86_269)">
<path d="M328.144 2735.75L80.9789 2636L-198 2850.38L-51.169 3301L328.144 3230.12L497 3001.75L328.144 2735.75Z" fill="url(#paint4_linear_86_269)" fill-opacity="0.3"/>
</g>
</g>
<g filter="url(#filter5_f_86_269)">
<path d="M80.7606 513.7L-58.6479 448L-216 589.197L-133.183 886L80.7606 839.318L176 688.9L80.7606 513.7Z" fill="url(#paint5_linear_86_269)" fill-opacity="0.5"/>
</g>
<g filter="url(#filter6_f_86_269)">
<path d="M1834.76 348.7L1695.35 283L1538 424.197L1620.82 721L1834.76 674.318L1930 523.9L1834.76 348.7Z" fill="url(#paint6_linear_86_269)" fill-opacity="0.5"/>
</g>
<path d="M-31 38L1726.5 41.5" stroke="#0166EB" stroke-dasharray="10 10"/>
<path d="M1166 40.5C1433.77 50.3925 1634.67 201.379 1671 405" stroke="#0166EB" stroke-dasharray="10 10"/>
<path d="M1670 991.5V-313" stroke="#0166EB" stroke-dasharray="10 10"/>
<path d="M212.18 5259.5L213 -264.997" stroke="#0166EB" stroke-dasharray="10 10"/>
<path d="M736.698 5259L736.39 0.00733256" stroke="#0166EB" stroke-dasharray="10 10"/>
<path d="M1537.85 0V42" stroke="#0166EB" stroke-dasharray="10 10"/>
</g>
<defs>
<filter id="filter0_f_86_269" x="895" y="3499" width="1150" height="939" filterUnits="userSpaceOnUse" color-interpolation-filters="sRGB">
<feFlood flood-opacity="0" result="BackgroundImageFix"/>
<feBlend mode="normal" in="SourceGraphic" in2="BackgroundImageFix" result="shape"/>
<feGaussianBlur stdDeviation="100" result="effect1_foregroundBlur_86_269"/>
</filter>
<filter id="filter1_f_86_269" x="-171" y="4419" width="717" height="578" filterUnits="userSpaceOnUse" color-interpolation-filters="sRGB">
<feFlood flood-opacity="0" result="BackgroundImageFix"/>
<feBlend mode="normal" in="SourceGraphic" in2="BackgroundImageFix" result="shape"/>
<feGaussianBlur stdDeviation="35" result="effect1_foregroundBlur_86_269"/>
</filter>
<filter id="filter2_f_86_269" x="-374" y="1226" width="992" height="1038" filterUnits="userSpaceOnUse" color-interpolation-filters="sRGB">
<feFlood flood-opacity="0" result="BackgroundImageFix"/>
<feBlend mode="normal" in="SourceGraphic" in2="BackgroundImageFix" result="shape"/>
<feGaussianBlur stdDeviation="150" result="effect1_foregroundBlur_86_269"/>
</filter>
<filter id="filter3_f_86_269" x="919" y="1114" width="1398" height="1390" filterUnits="userSpaceOnUse" color-interpolation-filters="sRGB">
<feFlood flood-opacity="0" result="BackgroundImageFix"/>
<feBlend mode="normal" in="SourceGraphic" in2="BackgroundImageFix" result="shape"/>
<feGaussianBlur stdDeviation="150" result="effect1_foregroundBlur_86_269"/>
</filter>
<filter id="filter4_f_86_269" x="-498" y="2336" width="1295" height="1265" filterUnits="userSpaceOnUse" color-interpolation-filters="sRGB">
<feFlood flood-opacity="0" result="BackgroundImageFix"/>
<feBlend mode="normal" in="SourceGraphic" in2="BackgroundImageFix" result="shape"/>
<feGaussianBlur stdDeviation="150" result="effect1_foregroundBlur_86_269"/>
</filter>
<filter id="filter5_f_86_269" x="-516" y="148" width="992" height="1038" filterUnits="userSpaceOnUse" color-interpolation-filters="sRGB">
<feFlood flood-opacity="0" result="BackgroundImageFix"/>
<feBlend mode="normal" in="SourceGraphic" in2="BackgroundImageFix" result="shape"/>
<feGaussianBlur stdDeviation="150" result="effect1_foregroundBlur_86_269"/>
</filter>
<filter id="filter6_f_86_269" x="1138" y="-117" width="1192" height="1238" filterUnits="userSpaceOnUse" color-interpolation-filters="sRGB">
<feFlood flood-opacity="0" result="BackgroundImageFix"/>
<feBlend mode="normal" in="SourceGraphic" in2="BackgroundImageFix" result="shape"/>
<feGaussianBlur stdDeviation="200" result="effect1_foregroundBlur_86_269"/>
</filter>
<linearGradient id="paint0_linear_86_269" x1="1470" y1="3699" x2="1470" y2="4238" gradientUnits="userSpaceOnUse">
<stop stop-color="#89FFDA"/>
<stop offset="1" stop-color="#01EF78"/>
</linearGradient>
<linearGradient id="paint1_linear_86_269" x1="187.5" y1="4489" x2="187.5" y2="4927" gradientUnits="userSpaceOnUse">
<stop stop-color="#89FFDA"/>
<stop offset="1" stop-color="#01EF78"/>
</linearGradient>
<linearGradient id="paint2_linear_86_269" x1="122" y1="1526" x2="122" y2="1964" gradientUnits="userSpaceOnUse">
<stop stop-color="#89FFDA"/>
<stop offset="1" stop-color="#01EF78"/>
</linearGradient>
<linearGradient id="paint3_linear_86_269" x1="1618" y1="1414" x2="1618" y2="2204" gradientUnits="userSpaceOnUse">
<stop stop-color="#89FFDA"/>
<stop offset="1" stop-color="#01EF78"/>
</linearGradient>
<linearGradient id="paint4_linear_86_269" x1="149.5" y1="2636" x2="149.5" y2="3301" gradientUnits="userSpaceOnUse">
<stop stop-color="#89FFDA"/>
<stop offset="1" stop-color="#01EF78"/>
</linearGradient>
<linearGradient id="paint5_linear_86_269" x1="-20" y1="448" x2="-20" y2="886" gradientUnits="userSpaceOnUse">
<stop stop-color="#01D2FF"/>
<stop offset="1" stop-color="#CAE81E"/>
</linearGradient>
<linearGradient id="paint6_linear_86_269" x1="1734" y1="283" x2="1734" y2="721" gradientUnits="userSpaceOnUse">
<stop stop-color="#01D2FF"/>
<stop offset="1" stop-color="#CAE81E"/>
</linearGradient>
<clipPath id="clip0_86_269">
<rect width="1720" height="5259" fill="white"/>
</clipPath>
<clipPath id="clip1_86_269">
<rect width="1720" height="4258" fill="white" transform="translate(0 1001)"/>
</clipPath>
</defs>
</svg>
