<svg width="1720" height="5259" viewBox="0 0 1720 5259" fill="none" xmlns="http://www.w3.org/2000/svg">
<g clip-path="url(#clip0_86_269)">
<g clip-path="url(#clip1_86_269)">
<path d="M-50 1634L1707.5 1637.5" stroke="#0166EB" stroke-dasharray="10 10"/>
<path d="M1670 5254L1670.08 688" stroke="#0166EB" stroke-dasharray="10 10"/>
<path d="M1534 6314L1551 1638" stroke="#0166EB" stroke-dasharray="10 10"/>
<path d="M1143 1636C1410.74 1636 1670 1814.33 1670 2066" stroke="#0166EB" stroke-linecap="round" stroke-dasharray="10 10"/>
<path d="M1549.45 2062C1554.55 2370.33 1597.07 2501.52 1730.45 2675" stroke="#0166EB" stroke-linecap="round" stroke-dasharray="10 10"/>
<path d="M0 4386C5.29498 4078.17 49.463 3947.19 188 3774" stroke="#0166EB" stroke-linecap="round" stroke-dasharray="10 10"/>
<path d="M-182 2052.5C-176.705 2360.33 -153 2633.5 206 2650" stroke="#0166EB" stroke-linecap="round" stroke-dasharray="10 10"/>
</g>
<path d="M-31 38L1726.5 41.5" stroke="#0166EB" stroke-dasharray="10 10"/>
<path d="M1166 40.5C1433.77 50.3925 1634.67 201.379 1671 405" stroke="#0166EB" stroke-dasharray="10 10"/>
<path d="M1670 991.5V-313" stroke="#0166EB" stroke-dasharray="10 10"/>
<path d="M212.18 5259.5L213 -264.997" stroke="#0166EB" stroke-dasharray="10 10"/>
<path d="M736.698 5259L736.39 0.00733256" stroke="#0166EB" stroke-dasharray="10 10"/>
<path d="M1537.85 0V42" stroke="#0166EB" stroke-dasharray="10 10"/>
</g>
<defs>
<clipPath id="clip0_86_269">
<rect width="1720" height="5259" fill="white"/>
</clipPath>
<clipPath id="clip1_86_269">
<rect width="1720" height="4258" fill="white" transform="translate(0 1001)"/>
</clipPath>
</defs>
</svg>
